PathFileType	4	(X/Y/Z)	/Users/itak/Documents/Research/Walk-IL/dataset/trc/00505_00183.trc
DataRate	CameraRate	NumFrames	NumMarkers	Units	OrigDataRate	OrigDataStartFrame	OrigNumFrames
100.000000	100.000000	4	53	mm	100.000000	92	369
Frame#	Time	RPSI			LPSI			L3			STRN			T10			C7			CLAV			RBAK			LBAK			LSHO			LUPA			LAEL			LAOL			LWTS			LWPS			LFRA			LIFD			LHPS			LHTS			RSHO			RUPA			RAEL			RAOL			RWTS			RWPS			RFRA			RIFD			RHTS			RHPS			RBHD			LFHD			RFHD			LBHD			LHIP			RHIP			RASI			LASI			LKNE			LTHI			LANK			LTIP			LTOE			LMT1			LMT5			LHEE			RKNE			RTHI			RANK			RTIP			RTOE			RMT1			RMT5			RHEE			
		X1	Y1	Z1	X2	Y2	Z2	X3	Y3	Z3	X4	Y4	Z4	X5	Y5	Z5	X6	Y6	Z6	X7	Y7	Z7	X8	Y8	Z8	X9	Y9	Z9	X10	Y10	Z10	X11	Y11	Z11	X12	Y12	Z12	X13	Y13	Z13	X14	Y14	Z14	X15	Y15	Z15	X16	Y16	Z16	X17	Y17	Z17	X18	Y18	Z18	X19	Y19	Z19	X20	Y20	Z20	X21	Y21	Z21	X22	Y22	Z22	X23	Y23	Z23	X24	Y24	Z24	X25	Y25	Z25	X26	Y26	Z26	X27	Y27	Z27	X28	Y28	Z28	X29	Y29	Z29	X30	Y30	Z30	X31	Y31	Z31	X32	Y32	Z32	X33	Y33	Z33	X34	Y34	Z34	X35	Y35	Z35	X36	Y36	Z36	X37	Y37	Z37	X38	Y38	Z38	X39	Y39	Z39	X40	Y40	Z40	X41	Y41	Z41	X42	Y42	Z42	X43	Y43	Z43	X44	Y44	Z44	X45	Y45	Z45	X46	Y46	Z46	X47	Y47	Z47	X48	Y48	Z48	X49	Y49	Z49	X50	Y50	Z50	X51	Y51	Z51	X52	Y52	Z52	X53	Y53	Z53	

93	0.92	-1100.209228515625	981.225341796875	-442.712646484375	-1038.216064453125	978.7998046875	-550.10107421875	-1071.452026367188	1041.067749023438	-504.7276000976562	-861.839599609375	1190.775512695312	-407.9532165527344	-1082.934326171875	1146.213134765625	-510.6466064453125	-1028.20458984375	1373.335571289062	-482.2646789550781	-889.8675537109375	1287.770751953125	-420.9664611816406	-1111.3798828125	1252.226440429688	-427.5895385742188	-1015.485473632812	1322.23974609375	-571.992919921875	-896.8028564453125	1366.215209960938	-597.4163208007812	-885.5587768554688	1242.383544921875	-664.0699462890625	-867.6004028320312	1032.858520507812	-688.8897094726562	-963.3794555664062	1024.508911132812	-662.22021484375	-808.2537231445312	839.4950561523438	-611.0305786132812	-857.3323974609375	807.0910034179688	-685.0640869140625	-852.0465087890625	948.4739990234375	-683.2639770507812	-843.2815551757812	685.387451171875	-591.1046752929688	-849.2661743164062	751.7850341796875	-666.3754272460938	-804.8233032226562	756.5789794921875	-617.7138061523438	-1038.969848632812	1362.448608398438	-324.5872497558594	-1080.616821289062	1296.626953125	-279.61474609375	-1103.885498046875	1029.24072265625	-238.1611633300781	-1143.453247070312	1015.402770996094	-290.0360107421875	-1000.149291992188	826.1265869140625	-249.4270629882812	-1083.664916992188	804.326904296875	-218.2054595947266	-1102.555541992188	974.3117065429688	-230.9209747314453	-1009.608520507812	664.576416015625	-262.9308166503906	-996.098876953125	727.768310546875	-233.2782287597656	-1066.481323242188	729.843994140625	-220.9801483154297	-1047.678466796875	1510.594116210938	-391.8583984375	-879.2998657226562	1599.309692382812	-454.8448791503906	-941.8252563476562	1584.935546875	-344.6458129882812	-981.9358520507812	1522.201293945312	-536.4668579101562	-889.1101684570312	889.1754150390625	-615.0993041992188	-1082.642333984375	871.2158203125	-288.0198974609375	-957.8382568359375	902.9859619140625	-296.0704650878906	-841.1423950195312	913.4833374023438	-507.3987731933594	-932.1939697265625	466.2854309082031	-569.9261474609375	-898.1866455078125	621.4033203125	-586.0632934570312	-1052.58154296875	52.10717010498047	-612.044677734375	-965.690673828125	317.13818359375	-586.0535888671875	-905.0315551757812	41.68215942382812	-472.8353576660156	-989.0938720703125	37.46383666992188	-475.3292846679688	-953.0094604492188	52.88314819335938	-570.1791381835938	-1124.352783203125	40.06983947753906	-585.0872802734375	-1081.564086914062	479.5474243164062	-322.8145141601562	-1069.497436523438	738.979736328125	-279.0686340332031	-1160.614990234375	48.60702133178711	-388.6244506835938	-1080.62060546875	333.489501953125	-342.7089538574219	-966.9641723632812	54.96808624267578	-334.5122985839844	-1004.044250488281	50.71430587768555	-399.3524475097656	-1068.5703125	48.96498870849609	-324.3037719726562	-1187.953369140625	35.35329818725586	-453.4434509277344	
94	0.93	-1097.693481445312	981.493896484375	-442.1463012695312	-1035.73486328125	978.9652099609375	-549.5296020507812	-1068.051635742188	1041.71337890625	-504.2441711425781	-857.7484741210938	1190.270263671875	-408.3158874511719	-1078.952880859375	1146.292602539062	-510.8038635253906	-1023.672180175781	1373.286865234375	-482.5798034667969	-885.4971313476562	1287.329833984375	-421.2901916503906	-1107.052368164062	1252.238159179688	-427.8642578125	-1011.054992675781	1322.26806640625	-572.2994995117188	-892.2215576171875	1366.00390625	-597.5548095703125	-880.6742553710938	1242.286010742188	-664.3175659179688	-861.9944458007812	1032.828979492188	-689.0292358398438	-958.0016479492188	1024.265258789062	-663.1822509765625	-801.516845703125	840.2955932617188	-609.447021484375	-849.6949462890625	807.5464477539062	-684.02734375	-845.8169555664062	948.8402099609375	-682.7988891601562	-837.0303344726562	686.1097412109375	-589.5628662109375	-841.7114868164062	752.2955932617188	-665.1534423828125	-798.0135498046875	757.1842651367188	-615.8231201171875	-1034.302368164062	1362.434936523438	-324.8038635253906	-1076.108764648438	1296.843017578125	-279.798583984375	-1100.78076171875	1029.672241210938	-238.1020660400391	-1140.31298828125	1016.012084960938	-290.0726623535156	-997.8209228515625	826.2993774414062	-248.5439605712891	-1081.59521484375	804.7391357421875	-217.7783660888672	-1099.723754882812	974.7858276367188	-230.7680816650391	-1007.461975097656	664.8259887695312	-262.0787658691406	-994.05126953125	727.9873046875	-232.2821197509766	-1064.493774414062	730.1752319335938	-220.4775390625	-1043.486328125	1509.958129882812	-391.9046020507812	-875.1338500976562	1599.154296875	-454.2643432617188	-937.8046875	1584.205078125	-344.2191467285156	-977.5643310546875	1522.269287109375	-536.3677368164062	-887.4097290039062	888.7063598632812	-615.0458984375	-1080.227416992188	871.0869750976562	-287.3294677734375	-955.480712890625	902.7101440429688	-296.0362243652344	-838.742919921875	912.8974609375	-507.31298828125	-931.0013427734375	465.8603515625	-570.5930786132812	-896.67529296875	620.9979858398438	-586.2740478515625	-1052.4208984375	51.74600601196289	-612.4091796875	-964.767822265625	316.7447509765625	-586.7822875976562	-905.1226196289062	41.66484832763672	-472.8998718261719	-989.080078125	37.5574836730957	-475.4754028320312	-952.9461669921875	52.53823471069336	-570.3798828125	-1124.272338867188	39.92030334472656	-585.5073852539062	-1074.608520507812	479.2299499511719	-324.0949401855469	-1066.319091796875	738.6055908203125	-279.1591796875	-1160.135498046875	49.4300537109375	-388.6695251464844	-1074.292724609375	332.814453125	-343.1151428222656	-966.3087768554688	53.93807983398438	-335.2245178222656	-1003.610534667969	49.76070785522461	-399.85693359375	-1067.986083984375	49.14278411865234	-324.6428527832031	-1187.87109375	36.43967056274414	-453.3623046875	
95	0.9400000000000001	-1095.250610351562	981.7113647460938	-441.5185241699219	-1033.244995117188	979.1415405273438	-548.8616943359375	-1064.5888671875	1042.405395507812	-503.6412353515625	-853.582275390625	1189.689819335938	-408.5445251464844	-1074.821411132812	1146.325073242188	-510.9049987792969	-1018.998901367188	1373.180786132812	-482.8561706542969	-881.0208740234375	1286.8212890625	-421.512939453125	-1102.654418945312	1252.241333007812	-428.1067504882812	-1006.482299804688	1322.2412109375	-572.5597534179688	-887.5068969726562	1365.685424804688	-597.611083984375	-875.6127319335938	1242.093139648438	-664.47607421875	-856.1233520507812	1032.704467773438	-689.0492553710938	-952.3455810546875	1023.881164550781	-663.988525390625	-794.3447265625	841.2300415039062	-607.493896484375	-841.5223999023438	808.0184936523438	-682.5899658203125	-839.2408447265625	949.1699829101562	-682.0814819335938	-829.6785888671875	686.8434448242188	-587.7191772460938	-833.366455078125	752.8536987304688	-663.5476684570312	-790.4998168945312	757.9608154296875	-613.6195068359375	-1029.519775390625	1362.432861328125	-324.9761962890625	-1071.522827148438	1297.08935546875	-279.9376220703125	-1097.673461914062	1030.149780273438	-238.0589904785156	-1137.168701171875	1016.697509765625	-290.129150390625	-995.58935546875	826.5146484375	-247.6220855712891	-1079.6435546875	805.19970703125	-217.3368530273438	-1096.919799804688	975.3134155273438	-230.6270446777344	-1005.376037597656	665.0926513671875	-261.0910339355469	-992.1135864257812	728.2634887695312	-231.1694030761719	-1062.617797851562	730.5602416992188	-219.9078369140625	-1039.163818359375	1509.255981445312	-391.942626953125	-870.8387451171875	1598.935302734375	-453.6744384765625	-933.6544189453125	1583.420776367188	-343.7931213378906	-973.0604248046875	1522.260131835938	-536.2537231445312	-885.5465698242188	888.3025512695312	-614.772705078125	-1077.928466796875	870.6987915039062	-286.5945739746094	-953.3209228515625	902.3104248046875	-295.9155578613281	-836.2987060546875	912.2811889648438	-507.0296325683594	-929.828369140625	465.4485168457031	-571.3616943359375	-895.1289672851562	620.623046875	-586.5245971679688	-1052.2890625	51.39046859741211	-612.7758178710938	-963.943115234375	316.3659057617188	-587.6038818359375	-905.1959838867188	41.66852188110352	-472.9901733398438	-989.0416259765625	37.66949081420898	-475.6335754394531	-952.8687133789062	52.21214294433594	-570.605712890625	-1124.2001953125	39.77482986450195	-585.9075317382812	-1066.732421875	478.8696899414062	-325.5069274902344	-1063.069580078125	738.0790405273438	-279.2016906738281	-1159.501586914062	50.65691757202148	-388.7488403320312	-1067.201538085938	332.1304016113281	-343.3573608398438	-965.6093139648438	52.79095458984375	-335.8382873535156	-1003.110778808594	48.74191665649414	-400.2622680664062	-1067.322631835938	49.399658203125	-324.945556640625	-1187.599609375	38.12322616577148	-453.3603210449219	
96	0.9500000000000001	-1092.892211914062	981.8310546875	-440.8418579101562	-1030.764892578125	979.2905883789062	-548.1248779296875	-1061.080200195312	1043.12060546875	-502.9212341308594	-849.36767578125	1189.00341796875	-408.6060485839844	-1070.547485351562	1146.295166015625	-510.9056091308594	-1014.193664550781	1373.006591796875	-483.0406494140625	-876.4444580078125	1286.221069335938	-421.6008605957031	-1098.18994140625	1252.243408203125	-428.2926025390625	-1001.765625	1322.140014648438	-572.7490234375	-882.6510009765625	1365.23193359375	-597.5560302734375	-870.3839111328125	1241.774047851562	-664.5125732421875	-849.9674072265625	1032.460205078125	-688.9072875976562	-946.3964233398438	1023.323547363281	-664.6224365234375	-786.7769775390625	842.3001098632812	-605.1092529296875	-832.781982421875	808.5039672851562	-680.7176513671875	-832.3178100585938	949.4351196289062	-681.0623168945312	-821.205322265625	687.5758666992188	-585.5151977539062	-824.197021484375	753.4620361328125	-661.51318359375	-782.2530517578125	758.9357299804688	-611.0217895507812	-1024.623779296875	1362.4306640625	-325.0710754394531	-1066.861450195312	1297.35400390625	-280.0061340332031	-1094.588745117188	1030.66162109375	-238.0222930908203	-1134.037109375	1017.452514648438	-290.2007141113281	-993.4824829101562	826.7610473632812	-246.64404296875	-1077.838500976562	805.6885375976562	-216.8953857421875	-1094.17333984375	975.8803100585938	-230.4933929443359	-1003.379577636719	665.3707885742188	-259.9659118652344	-990.3132934570312	728.5851440429688	-229.938232421875	-1060.887817382812	730.9886474609375	-219.2837066650391	-1034.707641601562	1508.487670898438	-391.9657897949219	-866.4097900390625	1598.636840820312	-453.0812072753906	-929.3705444335938	1582.59033203125	-343.3690795898438	-968.4150390625	1522.144409179688	-536.1200561523438	-883.5162353515625	887.9577026367188	-614.28173828125	-1075.793212890625	870.0196533203125	-285.8653869628906	-951.3624877929688	901.7511596679688	-295.6931457519531	-833.8292846679688	911.6172485351562	-506.5443420410156	-928.6798706054688	465.0485534667969	-572.2203979492188	-893.5491943359375	620.2769775390625	-586.8207397460938	-1052.183837890625	51.05062103271484	-613.1384887695312	-963.2131958007812	316.0165405273438	-588.49853515625	-905.2564086914062	41.68859100341797	-473.0919189453125	-988.984375	37.79098129272461	-475.7932739257812	-952.7763061523438	51.9104118347168	-570.8428955078125	-1124.138061523438	39.63857269287109	-586.2775268554688	-1057.965209960938	478.4851379394531	-326.9187316894531	-1059.6875	737.3644409179688	-279.1518859863281	-1158.669555664062	52.39199447631836	-388.9081420898438	-1059.42529296875	331.5146179199219	-343.3688049316406	-964.87060546875	51.57866287231445	-336.3153991699219	-1002.530029296875	47.72573471069336	-400.5430297851562	-1066.574584960938	49.79251861572266	-325.2161865234375	-1187.05859375	40.53313064575195	-453.4973754882812	
